<svg xmlns="http://www.w3.org/2000/svg" xmlns:xlink="http://www.w3.org/1999/xlink" width="438" height="53" viewBox="0 0 438 53">
    <defs>
        <path id="a" d="M437.257 38.648c0 7.026-2.041 9.1-7.638 10.79-6.063 1.835-16.826 2.97-23.237 2.97-7.583 0-17.031-.493-25.093-2.34v-8.124h44.483V30.906h-31.484c-9.464 0-12.99-2.605-12.99-11.848v-4.827c0-7.285 2.155-9.482 8.073-11.012 5.952-1.54 15.707-2.535 22.075-2.535 7.73 0 17.02.603 25.107 2.394v8.126h-43.77v9.335h31.485c9.468 0 12.989 2.552 12.989 11.796v6.313zm-75.87 11.43c-9.22 1.83-18.5 2.33-27.49 2.33-8.99 0-18.442-.5-27.661-2.33v-47c9.219-1.827 18.56-2.394 27.549-2.394 8.99 0 18.165.567 27.383 2.394v8.386h-41.656v9.389h27.125v9.75h-27.125v11.092h41.875v8.384zm-71.054 0c-8.272 1.837-16.616 2.33-24.634 2.33s-16.528-.493-24.8-2.33V1.855h13.276v39.22h36.158v9.005zm-65.356.296c-4.425 1.27-10.27 1.721-14.62 1.797l-20.445-41.299h-1.143l-20.438 41.3c-4.361-.077-9.493-.528-13.911-1.798l25.888-48.499h18.457l26.212 48.5zM198.003 38.05c0 4.744-3.906 8.594-8.652 8.594-4.752 0-8.594-3.855-8.594-8.594 0-4.74 3.852-8.596 8.594-8.596 4.736 0 8.652 3.843 8.652 8.596zm-59.59 12.378c-4.24 1.218-8.77 1.663-13.281 1.743V31.102H92.148v21.069c-4.511-.08-9.038-.525-13.276-1.743V2.779c4.238-1.219 8.765-1.664 13.276-1.746v20.335h32.984V1.033c4.51.082 9.037.527 13.28 1.746v47.649zM60.375 11.586h-23.29v39.74H23.938v-39.74H.65V3.104C10.678 1.278 20.752.71 30.546.71c9.774 0 19.818.57 29.829 2.393v8.482z"/>
    </defs>
    <use fill="#FFF" fill-rule="evenodd" xlink:href="#a"/>
</svg>
