<?xml version="1.0" encoding="utf-8"?>
<!-- Generator: Adobe Illustrator 18.1.0, SVG Export Plug-In . SVG Version: 6.00 Build 0)  -->
<svg version="1.1" id="Calque_1" xmlns="http://www.w3.org/2000/svg" xmlns:xlink="http://www.w3.org/1999/xlink" x="0px" y="0px"
	 viewBox="0 0 720 405" enable-background="new 0 0 720 405" xml:space="preserve">
<g>
	<path fill="#FFFFFF" d="M155.1,185.8v74.8h27.5c20.6,0,37.1-16.7,37.1-37.5c0-20.6-16.7-37.5-37.1-37.5h-27.5V185.8z M200.5,223.3
		c0,9.8-7.9,17.7-17.7,17.7h-8.3v-35.4h8.3C192.6,205.6,200.5,213.7,200.5,223.3z M252.8,260.6v-74.8h-19.4v74.8H252.8z
		 M303.9,205.4c5,0,9.2,1.9,12.3,5l13.8-13.8c-6.7-6.7-16-11-26.2-11c-20.6,0-37.1,16.7-37.1,37.5c0,20.6,16.5,37.5,37.1,37.5
		c20.6,0,37.1-16.7,37.1-37.5v-2.9h-37.1v13.1h14.4c-3.1,4.4-8.5,7.3-14.4,7.3c-9,0-17.5-7.5-17.5-17.7
		C286.4,212.7,294.5,205.4,303.9,205.4z M371.2,260.6v-74.8h-19.6v74.8H371.2z M423.6,260.6v-55.4h19.8v-19.4h-58.7v19.6h19.4v55.4
		h19.4V260.6z M446.2,260.6h19.6l4.4-9.8h30.4l4.6,9.8h19.6l-35-74.8h-8.8L446.2,260.6z M493.2,234.2H478l7.7-16.5L493.2,234.2z
		 M534.7,185.8v74.8h46.3v-19.8h-26.7v-55H534.7z M162,299.4h34.6v-7.1h-42.3v66.9h7.7v-28.8h31.2v-6.9H162V299.4z M225.9,292.3
		l-29.8,66.9h8.1l7.5-17.1h36.2l7.5,17.1h8.3l-29.8-66.9H225.9z M214.5,335.2l15-34.4l15.2,34.4H214.5z M300.9,352.5
		c-15,0-27.1-11.9-27.1-26.7c0-14.8,12.1-26.5,27.1-26.5c7.3,0,14.6,3.1,19.6,8.3l4.6-5.6c-6.3-6-15.2-9.8-24.4-9.8
		c-19.2,0-34.6,14.8-34.6,33.7s15.2,33.8,34.4,33.8c9.2,0,18.1-3.8,24.8-10.2l-4.6-5C315.3,349.4,308.2,352.5,300.9,352.5z
		 M329.9,299.4h21.7v59.8h7.7v-59.8h21.7v-7.1h-51.2V299.4z M416.3,292.1c-19.4,0-34.8,14.8-34.8,33.7c0,18.8,15.4,33.8,34.8,33.8
		s34.8-15,34.8-33.8C451.1,306.9,435.7,292.1,416.3,292.1z M416.3,352.7c-14.8,0-27.1-11.9-27.1-26.7c0-14.8,12.3-26.5,27.1-26.5
		c14.8,0,26.9,11.7,26.9,26.5C443.4,340.6,431.1,352.7,416.3,352.7z M516.6,314.8c0-14.2-9.6-22.5-26.2-22.5h-25.4v66.9h7.7v-21.2
		h17.7c1.5,0,2.9-0.2,4.2-0.2l14,21.3h8.7l-15.8-22.9C511.1,333.5,516.6,325.8,516.6,314.8z M490.3,331h-17.7v-31.5h17.7
		c12.1,0,18.8,5.4,18.8,15.6C509.1,325.6,502.4,331,490.3,331z M573.9,292.3l-21.3,35.2l-21.5-35.2h-7.9l25.8,43.8v23.1h7.5V336
		l25.4-43.7H573.9z M581.3,50.4H154.9v104.2h426.3V50.4z M235.7,90h-19.4v32.9h-11V90h-19.4v-7.1c8.5-1.5,16.7-1.9,25-1.9
		c8.1,0,16.5,0.4,25,1.9V90H235.7z M300.9,122.1c-3.5,1-7.3,1.3-11.2,1.5v-17.5h-27.5v17.5c-3.8,0-7.5-0.4-11.2-1.5V82.7
		c3.5-1,7.3-1.3,11.2-1.5v16.9h27.5V81.2c3.8,0,7.5,0.4,11.2,1.5V122.1z M343.4,119c-4,0-7.1-3.3-7.1-7.1s3.3-7.1,7.1-7.1
		c4,0,7.3,3.3,7.3,7.1S347.4,119,343.4,119z M360.9,123.7l-17.1-34.2h-1l-17.1,34.2c-3.7,0-7.9-0.4-11.5-1.5l21.7-40.2h15.4
		l21.9,40.2C369.5,123.3,364.5,123.5,360.9,123.7z M427.8,121.9c-6.9,1.5-13.8,1.9-20.6,1.9s-13.8-0.4-20.8-1.9v-40h11.2v32.5h30.2
		V121.9z M487,121.9c-7.7,1.5-15.4,1.9-22.9,1.9c-7.5,0-15.4-0.4-23.1-1.9v-39c7.7-1.5,15.6-1.9,23.1-1.9c7.5,0,15.2,0.4,22.9,1.9
		v6.9h-34.8v7.7h22.7v8.3h-22.7v9.2h35v6.9H487z M550.5,112.5c0,5.8-1.7,7.5-6.3,8.8c-5,1.5-14,2.5-19.4,2.5c-6.3,0-14.2-0.4-21-1.9
		v-6.7h37.1V106h-26.3c-7.9,0-10.8-2.1-10.8-9.8v-4c0-6,1.7-7.9,6.7-9c5-1.3,13.1-2.1,18.5-2.1c6.5,0,14.2,0.6,21,1.9v6.7h-36.5v7.7
		h26.3c7.9,0,10.8,2.1,10.8,9.8V112.5z"/>
</g>
</svg>
