<?xml version="1.0" encoding="UTF-8"?>
<svg width="69px" height="14px" viewBox="0 0 69 14" version="1.1" xmlns="http://www.w3.org/2000/svg" xmlns:xlink="http://www.w3.org/1999/xlink">
    <!-- Generator: Sketch 51 (57462) - http://www.bohemiancoding.com/sketch -->
    <title>Microsoft Logo</title>
    <desc>Created with Sketch.</desc>
    <defs></defs>
    <g id="Symbols" stroke="none" stroke-width="1" fill="none" fill-rule="evenodd">
        <g id="Btn/Primary" transform="translate(-92.000000, -13.000000)" fill="#FFFFFF">
            <g id="Microsoft-Logo" transform="translate(92.000000, 13.000000)">
                <g id="Microsoft_logo_(2012)">
                    <g id="Group" transform="translate(19.221429, 2.333333)" fill-rule="nonzero">
                        <path d="M5.26263158,5.96235294 L4.85255639,7.08235294 L4.81838346,7.08235294 C4.75003759,6.82980392 4.62473684,6.4454902 4.41969925,5.98431373 L2.2212406,0.658823529 L0.0683458647,0.658823529 L0.0683458647,9.14666667 L1.49221805,9.14666667 L1.49221805,3.90901961 C1.49221805,3.57960784 1.49221805,3.20627451 1.48082707,2.74509804 C1.46943609,2.5145098 1.44665414,2.33882353 1.43526316,2.20705882 L1.46943609,2.20705882 C1.53778195,2.53647059 1.6175188,2.77803922 1.67447368,2.93176471 L4.31718045,9.12470588 L5.31958647,9.12470588 L7.93951128,2.87686275 C7.99646617,2.73411765 8.05342105,2.44862745 8.11037594,2.20705882 L8.14454887,2.20705882 C8.11037594,2.83294118 8.08759398,3.39294118 8.07620301,3.73333333 L8.07620301,9.11372549 L9.59120301,9.11372549 L9.59120301,0.636862745 L7.51804511,0.636862745 L5.26263158,5.96235294 Z M11.0264662,3.03058824 L12.5072932,3.03058824 L12.5072932,9.11372549 L11.0264662,9.11372549 L11.0264662,3.03058824 Z M11.7782707,0.461176471 C11.5276692,0.461176471 11.3226316,0.549019608 11.1517669,0.702745098 C10.9809023,0.856470588 10.8897744,1.05411765 10.8897744,1.29568627 C10.8897744,1.52627451 10.9809023,1.72392157 11.1517669,1.87764706 C11.3226316,2.03137255 11.5276692,2.10823529 11.7782707,2.10823529 C12.0288722,2.10823529 12.2453008,2.02039216 12.4047744,1.87764706 C12.5756391,1.72392157 12.6667669,1.52627451 12.6667669,1.29568627 C12.6667669,1.06509804 12.5756391,0.86745098 12.4047744,0.702745098 C12.2566917,0.549019608 12.0402632,0.461176471 11.7782707,0.461176471 Z M17.7585338,2.97568627 C17.4851504,2.92078431 17.2003759,2.88784314 16.9269925,2.88784314 C16.2549248,2.88784314 15.639812,3.03058824 15.127218,3.31607843 C14.6146241,3.60156863 14.2045489,3.99686275 13.9425564,4.49098039 C13.6691729,4.99607843 13.5324812,5.57803922 13.5324812,6.24784314 C13.5324812,6.82980392 13.6691729,7.34588235 13.9311654,7.81803922 C14.1931579,8.27921569 14.5576692,8.65254902 15.0474812,8.90509804 C15.5145113,9.15764706 16.0612782,9.28941176 16.676391,9.28941176 C17.3826316,9.28941176 17.9863534,9.14666667 18.4647744,8.88313725 L18.4761654,8.87215686 L18.4761654,7.5545098 L18.4192105,7.59843137 C18.202782,7.75215686 17.9521805,7.88392157 17.7015789,7.96078431 C17.4395865,8.04862745 17.2003759,8.09254902 16.9953383,8.09254902 C16.4030075,8.09254902 15.9359774,7.92784314 15.6056391,7.5654902 C15.2639098,7.21411765 15.0930451,6.73098039 15.0930451,6.12705882 C15.0930451,5.50117647 15.2639098,5.00705882 15.6170301,4.64470588 C15.9701504,4.28235294 16.4371805,4.09568627 17.0067293,4.09568627 C17.4851504,4.09568627 17.9749624,4.24941176 18.4192105,4.55686275 L18.4761654,4.60078431 L18.4761654,3.20627451 L18.4647744,3.19529412 C18.2711278,3.11843137 18.0546992,3.03058824 17.7585338,2.97568627 Z M22.6452632,2.93176471 C22.2807519,2.93176471 21.9390226,3.04156863 21.6428571,3.27215686 C21.3922556,3.46980392 21.221391,3.75529412 21.0733083,4.09568627 L21.0619173,4.09568627 L21.0619173,3.03058824 L19.5810902,3.03058824 L19.5810902,9.11372549 L21.0619173,9.11372549 L21.0619173,6.00627451 C21.0619173,5.47921569 21.1758271,5.04 21.4264286,4.72156863 C21.6770301,4.39215686 21.9959774,4.22745098 22.3832707,4.22745098 C22.5199624,4.22745098 22.6566541,4.26039216 22.8275188,4.28235294 C22.9869925,4.32627451 23.1009023,4.37019608 23.1806391,4.42509804 L23.237594,4.46901961 L23.237594,3.04156863 L23.2034211,3.03058824 C23.1009023,2.96470588 22.8958647,2.93176471 22.6452632,2.93176471 Z M26.6776692,2.89882353 C25.6410902,2.89882353 24.8095489,3.19529412 24.228609,3.7772549 C23.6362782,4.35921569 23.3515038,5.16078431 23.3515038,6.17098039 C23.3515038,7.11529412 23.6476692,7.88392157 24.217218,8.44392157 C24.7867669,8.99294118 25.5613534,9.27843137 26.5295865,9.27843137 C27.5433835,9.27843137 28.3521429,8.98196078 28.9330827,8.38901961 C29.5254135,7.79607843 29.810188,7.0054902 29.810188,6.02823529 C29.810188,5.06196078 29.5368045,4.29333333 28.9786466,3.73333333 C28.4432707,3.17333333 27.6572932,2.89882353 26.6776692,2.89882353 Z M27.8623308,7.57647059 C27.5889474,7.91686275 27.1560902,8.08156863 26.6207143,8.08156863 C26.0853383,8.08156863 25.6524812,7.91686275 25.3449248,7.5545098 C25.0373684,7.21411765 24.8892857,6.72 24.8892857,6.09411765 C24.8892857,5.44627451 25.0487594,4.95215686 25.3449248,4.60078431 C25.6524812,4.24941176 26.0739474,4.07372549 26.6093233,4.07372549 C27.1333083,4.07372549 27.5433835,4.23843137 27.8395489,4.57882353 C28.1357143,4.91921569 28.295188,5.41333333 28.295188,6.06117647 C28.272406,6.72 28.1471053,7.23607843 27.8623308,7.57647059 Z M33.1135714,5.55607843 C32.6465414,5.36941176 32.3503759,5.22666667 32.2136842,5.10588235 C32.0997744,4.99607843 32.0428195,4.84235294 32.0428195,4.64470588 C32.0428195,4.48 32.1111654,4.31529412 32.2820301,4.2054902 C32.4528947,4.09568627 32.6465414,4.04078431 32.9313158,4.04078431 C33.1819173,4.04078431 33.4439098,4.08470588 33.6945113,4.15058824 C33.9451128,4.21647059 34.1729323,4.31529412 34.355188,4.44705882 L34.4121429,4.49098039 L34.4121429,3.15137255 L34.3779699,3.14039216 C34.2071053,3.0745098 33.9792857,3.00862745 33.7059023,2.95372549 C33.4325188,2.90980392 33.1819173,2.88784314 32.9768797,2.88784314 C32.2706391,2.88784314 31.6896992,3.05254902 31.2340602,3.41490196 C30.7784211,3.75529412 30.5619925,4.21647059 30.5619925,4.7545098 C30.5619925,5.04 30.6075564,5.29254902 30.7100752,5.50117647 C30.812594,5.70980392 30.9606767,5.90745098 31.1657143,6.07215686 C31.3707519,6.22588235 31.6669173,6.40156863 32.0769925,6.56627451 C32.4187218,6.70901961 32.6807143,6.81882353 32.840188,6.90666667 C32.9996617,6.9945098 33.1021805,7.09333333 33.1819173,7.17019608 C33.2388722,7.25803922 33.2730451,7.36784314 33.2730451,7.51058824 C33.2730451,7.91686275 32.9540977,8.1145098 32.304812,8.1145098 C32.0542105,8.1145098 31.792218,8.07058824 31.4846617,7.97176471 C31.1771053,7.87294118 30.8923308,7.73019608 30.6531203,7.5654902 L30.5961654,7.52156863 L30.5961654,8.91607843 L30.6303383,8.92705882 C30.8467669,9.02588235 31.1087594,9.09176471 31.4277068,9.16862745 C31.7466541,9.22352941 32.0314286,9.26745098 32.2820301,9.26745098 C33.0452256,9.26745098 33.6717293,9.1027451 34.1159774,8.74039216 C34.5716165,8.38901961 34.8108271,7.93882353 34.8108271,7.35686275 C34.8108271,6.95058824 34.6969173,6.58823529 34.4463158,6.31372549 C34.1159774,6.05019608 33.7059023,5.77568627 33.1135714,5.55607843 Z M38.7179323,2.89882353 C37.6813534,2.89882353 36.849812,3.19529412 36.2688722,3.7772549 C35.6879323,4.35921569 35.3917669,5.16078431 35.3917669,6.17098039 C35.3917669,7.11529412 35.6879323,7.88392157 36.2574812,8.44392157 C36.8270301,8.99294118 37.6016165,9.27843137 38.5698496,9.27843137 C39.5836466,9.27843137 40.392406,8.98196078 40.9733459,8.38901961 C41.5656767,7.79607843 41.8504511,7.0054902 41.8504511,6.02823529 C41.8504511,5.06196078 41.5770677,4.29333333 41.0189098,3.73333333 C40.4835338,3.17333333 39.6975564,2.89882353 38.7179323,2.89882353 Z M39.891203,7.57647059 C39.6178195,7.91686275 39.1849624,8.08156863 38.6495865,8.08156863 C38.1028195,8.08156863 37.6813534,7.91686275 37.373797,7.5545098 C37.0662406,7.21411765 36.9181579,6.72 36.9181579,6.09411765 C36.9181579,5.44627451 37.0776316,4.95215686 37.373797,4.60078431 C37.6813534,4.24941176 38.1028195,4.07372549 38.6381955,4.07372549 C39.1507895,4.07372549 39.5722556,4.23843137 39.8684211,4.57882353 C40.1645865,4.91921569 40.3240602,5.41333333 40.3240602,6.06117647 C40.3240602,6.72 40.1759774,7.23607843 39.891203,7.57647059 Z" id="Shape"></path>
                        <path d="M49.7671805,4.2054902 L49.7671805,3.03058824 L48.2749624,3.03058824 L48.2749624,1.22980392 L48.2293985,1.24078431 L46.8169173,1.64705882 L46.7827444,1.65803922 L46.7827444,3.03058824 L44.5501128,3.03058824 L44.5501128,2.26196078 C44.5501128,1.91058824 44.6412406,1.63607843 44.8007143,1.46039216 C44.960188,1.28470588 45.1993985,1.19686275 45.4955639,1.19686275 C45.7006015,1.19686275 45.9170301,1.24078431 46.1562406,1.33960784 L46.2131955,1.37254902 L46.2131955,0.131764706 L46.1790226,0.120784314 C45.973985,0.0549019608 45.7006015,0.0109803922 45.3474812,0.0109803922 C44.9032331,0.0109803922 44.5159398,0.109803922 44.1628195,0.274509804 C43.8096992,0.461176471 43.5477068,0.71372549 43.3540602,1.05411765 C43.1604135,1.38352941 43.0578947,1.75686275 43.0578947,2.18509804 L43.0578947,3.03058824 L42.0213158,3.03058824 L42.0213158,4.1945098 L43.0578947,4.1945098 L43.0578947,9.11372549 L44.5501128,9.11372549 L44.5501128,4.2054902 L46.7827444,4.2054902 L46.7827444,7.33490196 C46.7827444,8.61960784 47.4092481,9.26745098 48.6622556,9.26745098 C48.8672932,9.26745098 49.0837218,9.2345098 49.2887594,9.20156863 C49.505188,9.15764706 49.6646617,9.1027451 49.7557895,9.05882353 L49.7671805,9.04784314 L49.7671805,7.87294118 L49.7102256,7.91686275 C49.6190977,7.97176471 49.5393609,8.01568627 49.4026692,8.04862745 C49.2887594,8.08156863 49.1862406,8.09254902 49.1065038,8.09254902 C48.8103383,8.09254902 48.6053008,8.02666667 48.457218,7.86196078 C48.3205263,7.70823529 48.2521805,7.45568627 48.2521805,7.08235294 L48.2521805,4.2054902 L49.7671805,4.2054902 Z" id="Shape"></path>
                    </g>
                    <polygon id="Shape" fill-rule="nonzero" points="0 0 6.9 0 6.9 6.53333333 0 6.53333333"></polygon>
                    <polygon id="Shape" fill-rule="nonzero" points="7.88571429 0 14.7857143 0 14.7857143 6.53333333 7.88571429 6.53333333"></polygon>
                    <polygon id="Shape" fill-rule="nonzero" points="0 7.46666667 6.9 7.46666667 6.9 14 0 14"></polygon>
                    <polygon id="Shape" fill-rule="nonzero" points="7.88571429 7.46666667 14.7857143 7.46666667 14.7857143 14 7.88571429 14"></polygon>
                </g>
            </g>
        </g>
    </g>
</svg>