<?xml version="1.0" encoding="UTF-8"?>
<svg width="168px" height="12px" viewBox="0 0 168 12" version="1.1" xmlns="http://www.w3.org/2000/svg" xmlns:xlink="http://www.w3.org/1999/xlink">
    <!-- Generator: Sketch 52.2 (67145) - http://www.bohemiancoding.com/sketch -->
    <title>logo_ThalesDigitalFactory_horizontal</title>
    <desc>Created with Sketch.</desc>
    <defs>
        <polygon id="path-1" points="6.53234147e-16 0 168 0 168 12 6.53234147e-16 12"></polygon>
    </defs>
    <g id="MASTER" stroke="none" stroke-width="1" fill="none" fill-rule="evenodd">
        <g id="00_LoginPage" transform="translate(-636.000000, -778.000000)">
            <g id="logo_ThalesDigitalFactory_horizontal" transform="translate(636.000000, 778.000000)">
                <mask id="mask-2" fill="white">
                    <use xlink:href="#path-1"></use>
                </mask>
                <g id="Clip-2"></g>
                <path d="M166.963121,1.69997463 L164.059399,6.19994004 L161.103733,1.69997463 L160.01491,1.69997463 L163.540816,7.35004497 L163.540816,10.3000254 L164.577695,10.3000254 L164.577695,7.29995618 L168,1.69997463 L166.963121,1.69997463 Z M155.607383,6.64990891 L153.222245,6.64990891 L153.222245,2.6001891 L155.607383,2.6001891 C157.266734,2.6001891 158.200012,3.30004843 158.200012,4.60014298 C158.148355,5.95004958 157.21479,6.64990891 155.607383,6.64990891 Z M159.133289,4.60014298 C159.133289,2.75017872 157.836975,1.69997463 155.555726,1.69997463 L152.133421,1.69997463 L152.133421,10.3000254 L153.1703,10.3000254 L153.1703,7.59993543 L155.555726,7.59993543 C155.762929,7.59993543 155.97042,7.59993543 156.125966,7.59993543 L158.044466,10.3501142 L159.237178,10.3501142 L157.111188,7.40013375 C158.407503,6.99997694 159.133289,6.00013837 159.133289,4.60014298 Z M145.548247,9.45017642 C143.525859,9.45017642 141.866794,7.89991467 141.866794,6.00013837 C141.866794,4.10008533 143.525859,2.6001891 145.548247,2.6001891 C147.570348,2.6001891 149.2297,4.10008533 149.2297,6.00013837 C149.2297,7.89991467 147.570348,9.45017642 145.548247,9.45017642 Z M145.548247,1.69997463 C142.903674,1.69997463 140.829628,3.60002767 140.829628,6.00013837 C140.829628,8.39997233 142.903674,10.3501142 145.548247,10.3501142 C148.192533,10.3501142 150.266866,8.45006111 150.266866,6.00013837 C150.266866,3.60002767 148.192533,1.69997463 145.548247,1.69997463 Z M133.777815,2.6001891 L136.733481,2.6001891 L136.733481,10.3000254 L137.77036,10.3000254 L137.77036,2.6001891 L140.726026,2.6001891 L140.726026,1.69997463 L133.777815,1.69997463 L133.777815,2.6001891 Z M129.837214,9.40008763 C127.814826,9.40008763 126.155475,7.85010262 126.155475,5.95004958 C126.155475,4.04999654 127.814826,2.55010032 129.837214,2.55010032 C130.822149,2.55010032 131.807371,2.9499804 132.533445,3.60002767 L133.15563,2.90016835 C132.27401,2.15022023 131.081584,1.65016258 129.837214,1.65016258 C127.192641,1.65016258 125.118595,3.54993889 125.118595,5.95004958 C125.118595,8.39997233 127.192641,10.3000254 129.78527,10.3000254 C131.02964,10.3000254 132.27401,9.79996771 133.15563,8.99993082 L132.533445,8.35016027 C131.807371,9.0500196 130.874094,9.40008763 129.837214,9.40008763 Z M118.170384,7.20005535 L120.192772,2.79999078 L122.266818,7.20005535 L118.170384,7.20005535 Z M119.674189,1.69997463 L115.6297,10.3000254 L116.718523,10.3000254 L117.703745,8.09999308 L122.629568,8.09999308 L123.666734,10.3000254 L124.807503,10.3000254 L120.763013,1.69997463 L119.674189,1.69997463 Z M111.014969,2.6001891 L115.733301,2.6001891 L115.733301,1.69997463 L109.977803,1.69997463 L109.977803,10.3000254 L111.014969,10.3000254 L111.014969,6.60009686 L115.214718,6.60009686 L115.214718,5.70015912 L111.014969,5.70015912 L111.014969,2.6001891 Z M104.636999,1.69997463 L102.251861,1.69997463 L102.251861,10.3000254 L107.903757,10.3000254 L107.903757,8.0499043 L104.636999,8.0499043 L104.636999,1.69997463 Z M95.3555941,7.29995618 L96.2888716,5.40017988 L97.2221491,7.29995618 L95.3555941,7.29995618 Z M95.718631,1.69997463 L91.5185951,10.3000254 L93.9037334,10.3000254 L94.4223166,9.14992044 L98.1037692,9.14992044 L98.6740099,10.3000254 L101.059435,10.3000254 L96.8074548,1.69997463 L95.718631,1.69997463 Z M84.0001435,3.9500957 L86.3333373,3.9500957 L86.3333373,10.3000254 L88.7184756,10.3000254 L88.7184756,3.9500957 L91.1036138,3.9500957 L91.1036138,1.69997463 L83.9481991,1.69997463 L83.9481991,3.9500957 L84.0001435,3.9500957 Z M80.0073113,10.3000254 L82.3927365,10.3000254 L82.3927365,1.69997463 L80.0073113,1.69997463 L80.0073113,10.3000254 Z M74.2001555,7.20005535 L75.9631087,7.20005535 C75.6000717,7.700113 74.9259423,8.0499043 74.2001555,8.0499043 C73.1110447,8.0499043 72.0741653,7.20005535 72.0741653,6.00013837 C72.0741653,4.79994465 73.0593873,3.9500957 74.2001555,3.9500957 C74.8223405,3.9500957 75.3406367,4.19998616 75.7036736,4.49996541 L77.363025,2.90016835 C76.5333493,2.15022023 75.4445255,1.65016258 74.2001555,1.65016258 C71.7111284,1.65016258 69.6890271,3.60002767 69.6890271,5.95004958 C69.6890271,8.35016027 71.7111284,10.2499366 74.2001555,10.2499366 C76.6888955,10.2499366 78.7109968,8.30007149 78.7109968,5.95004958 L78.7109968,5.65007034 L74.2001555,5.65007034 L74.2001555,7.20005535 Z M65.592593,10.3000254 L67.9777313,10.3000254 L67.9777313,1.69997463 L65.592593,1.69997463 L65.592593,10.3000254 Z M59.4221133,8.09999308 L58.4371783,8.09999308 L58.4371783,4.00018449 L59.4221133,4.00018449 C60.6148259,4.00018449 61.5481034,4.90012222 61.5481034,6.04995042 C61.6000478,7.14996656 60.6148259,8.09999308 59.4221133,8.09999308 Z M59.4221133,1.69997463 L56.0517531,1.69997463 L56.0517531,10.3000254 L59.4221133,10.3000254 C61.9111403,10.3000254 63.9332417,8.35016027 63.9332417,6.00013837 C63.9851861,3.60002767 61.9111403,1.69997463 59.4221133,1.69997463 Z M3.78534152,3.80010608 C4.82222089,3.65011646 5.80744284,3.54993889 6.84432221,3.54993889 C7.82954415,3.54993889 8.86671051,3.60002767 9.90358988,3.80010608 L9.90358988,4.60014298 L7.51845164,4.60014298 L7.51845164,8.39997233 L6.17047976,8.39997233 L6.17047976,4.60014298 L3.78534152,4.60014298 L3.78534152,3.80010608 Z M11.7184875,3.7500173 C12.1334689,3.65011646 12.6001076,3.60002767 13.0667464,3.60002767 L13.0667464,5.5501695 L16.4371066,5.5501695 L16.4371066,3.60002767 C16.9037453,3.60002767 17.3703841,3.65011646 17.7850785,3.7500173 L17.7850785,8.30007149 C17.3703841,8.39997233 16.9037453,8.45006111 16.4371066,8.45006111 L16.4371066,6.45010723 L13.0667464,6.45010723 L13.0667464,8.45006111 C12.6001076,8.45006111 12.1334689,8.39997233 11.7184875,8.30007149 L11.7184875,3.7500173 Z M22.0370587,3.65011646 L23.9036138,3.65011646 L26.5481871,8.30007149 C26.0815484,8.39997233 25.5110208,8.45006111 25.044382,8.45006111 L22.9703363,4.49996541 L22.8667344,4.49996541 L20.7926887,8.45006111 C20.3260499,8.45006111 19.8074668,8.39997233 19.3924854,8.30007149 L22.0370587,3.65011646 Z M28.2075385,3.65011646 L29.5555104,3.65011646 L29.5555104,7.40013375 L33.2369631,7.40013375 L33.2369631,8.2499827 C32.4072874,8.45006111 31.5259543,8.45006111 30.748223,8.45006111 C29.9704917,8.45006111 29.0888716,8.39997233 28.2075385,8.2499827 L28.2075385,3.65011646 Z M34.84437,3.7500173 C35.7779346,3.60002767 36.7112121,3.50012684 37.6444896,3.50012684 C38.5777671,3.50012684 39.5110447,3.54993889 40.4443222,3.7500173 L40.4443222,4.55005419 L36.1926289,4.55005419 L36.1926289,5.44999193 L38.9408041,5.44999193 L38.9408041,6.40001845 L36.1926289,6.40001845 L36.1926289,7.44994581 L40.4443222,7.44994581 L40.4443222,8.2499827 C39.5110447,8.39997233 38.5777671,8.45006111 37.6444896,8.45006111 C36.7112121,8.45006111 35.7779346,8.39997233 34.84437,8.2499827 L34.84437,3.7500173 Z M42.5186549,7.50003459 L47.0297833,7.50003459 L47.0297833,6.45010723 L43.8149694,6.45010723 C42.8297474,6.45010723 42.5186549,6.19994004 42.5186549,5.30000231 L42.5186549,4.85003344 C42.5186549,4.15017411 42.7258586,3.9500957 43.3480436,3.80010608 C43.9705156,3.65011646 44.9554506,3.54993889 45.5779226,3.54993889 C46.3556539,3.54993889 47.2889314,3.60002767 48.1186071,3.80010608 L48.1186071,4.60014298 L43.6591361,4.60014298 L43.6591361,5.50008071 L46.8742371,5.50008071 C47.859172,5.50008071 48.1702645,5.74997117 48.1702645,6.64990891 L48.1702645,7.25014413 C48.1702645,7.89991467 47.9630608,8.09999308 47.3925332,8.30007149 C46.7703482,8.5001499 45.6815244,8.60005073 45.007395,8.60005073 C44.2296637,8.60005073 43.2963862,8.54996195 42.4667105,8.39997233 L42.4667105,7.50003459 L42.5186549,7.50003459 Z M22.9703363,7.95000346 C22.5036975,7.95000346 22.0890032,7.59993543 22.0890032,7.14996656 C22.0890032,6.69999769 22.5036975,6.34992966 22.9703363,6.34992966 C23.436975,6.34992966 23.8519564,6.69999769 23.8519564,7.14996656 C23.8519564,7.55012338 23.436975,7.95000346 22.9703363,7.95000346 Z M0,12 L51.955606,12 L51.955606,0 L0,0 L0,12 Z" id="Fill-1" fill="#FFFFFF" mask="url(#mask-2)"></path>
            </g>
        </g>
    </g>
</svg>