<?xml version="1.0" standalone="no"?>
<!DOCTYPE svg PUBLIC "-//W3C//DTD SVG 20010904//EN"
 "http://www.w3.org/TR/2001/REC-SVG-20010904/DTD/svg10.dtd">
<svg version="1.0" xmlns="http://www.w3.org/2000/svg"
 width="355.000000pt" height="237.000000pt" viewBox="0 0 355.000000 237.000000"
 preserveAspectRatio="xMidYMid meet">
<metadata>
Created by potrace 1.15, written by Peter Selinger 2001-2017
</metadata>
<g transform="translate(0.000000,237.000000) scale(0.100000,-0.100000)"
fill="#000000" stroke="none">
<path d="M184 2162 c-6 -4 -16 -17 -23 -30 -16 -31 3 -70 128 -262 l101 -155
0 -141 c0 -128 2 -144 21 -168 28 -36 80 -36 108 0 19 24 21 40 21 168 l0 141
120 184 c124 190 137 222 102 254 -22 20 -72 22 -94 5 -9 -7 -57 -80 -108
-161 l-92 -148 -85 138 c-47 76 -94 148 -106 161 -20 22 -70 30 -93 14z"/>
<path d="M1110 2161 c-115 -36 -208 -129 -235 -236 -50 -205 6 -405 136 -485
75 -46 148 -63 249 -58 186 9 304 112 341 296 14 73 7 183 -16 259 -29 98
-121 189 -217 218 -54 16 -213 19 -258 6z m242 -146 c27 -19 52 -49 68 -80 22
-44 25 -63 25 -160 0 -125 -15 -166 -79 -223 -81 -71 -213 -66 -283 9 -114
125 -86 400 48 468 65 33 162 27 221 -14z"/>
<path d="M1769 2149 c-20 -20 -20 -28 -17 -297 3 -305 7 -324 70 -389 56 -58
117 -77 248 -78 133 0 175 11 232 63 81 73 83 81 86 395 4 320 2 327 -68 327
-42 0 -67 -18 -75 -53 -3 -12 -6 -132 -7 -267 -3 -208 -6 -250 -20 -276 -24
-43 -61 -65 -124 -71 -74 -8 -136 16 -166 65 -22 36 -23 46 -26 282 -3 265 -4
281 -28 304 -22 23 -80 20 -105 -5z"/>
<path d="M2591 2141 c-20 -20 -21 -30 -21 -371 0 -337 1 -351 20 -370 30 -30
83 -27 109 6 19 24 21 40 21 172 l0 144 65 -4 c58 -3 69 -8 101 -38 19 -19 65
-84 102 -145 84 -139 101 -157 149 -153 25 2 42 11 56 30 l20 27 -35 73 c-41
86 -102 169 -148 203 -29 22 -31 25 -14 30 10 3 44 18 73 33 70 36 101 88 101
172 0 78 -31 136 -95 175 l-48 30 -218 3 c-209 3 -218 3 -238 -17z m397 -118
c43 -31 57 -68 43 -114 -17 -58 -51 -71 -193 -77 l-118 -5 0 113 0 113 121 -5
c99 -4 125 -9 147 -25z"/>
<path d="M234 899 c-18 -20 -19 -43 -22 -352 -3 -362 -1 -378 50 -396 46 -16
436 -14 468 2 46 23 39 88 -11 106 -18 6 -101 11 -190 11 l-158 0 -3 304 c-3
283 -4 305 -22 325 -26 29 -86 29 -112 0z"/>
<path d="M1063 901 c-147 -50 -229 -185 -228 -376 1 -154 52 -266 149 -332 68
-46 116 -58 236 -58 99 0 110 2 172 33 110 54 168 141 189 286 31 206 -62 391
-224 445 -79 27 -219 28 -294 2z m231 -115 c54 -23 102 -80 120 -144 35 -127
12 -258 -58 -328 -87 -88 -221 -84 -303 9 -81 92 -85 301 -7 403 49 65 167 94
248 60z"/>
<path d="M1954 906 c-141 -46 -215 -126 -249 -268 -44 -189 21 -372 162 -454
125 -74 303 -73 461 3 95 45 105 65 100 209 -4 145 -3 144 -175 144 -74 0
-143 -5 -154 -10 -27 -15 -25 -64 3 -84 16 -11 46 -16 105 -16 l83 0 0 -64 0
-64 -52 -22 c-72 -31 -183 -38 -242 -16 -91 35 -136 108 -144 232 -12 195 71
307 227 307 84 0 121 -18 168 -84 50 -70 88 -82 136 -41 50 43 -10 158 -108
207 -54 27 -71 30 -170 32 -71 2 -124 -2 -151 -11z"/>
<path d="M2785 907 c-54 -18 -116 -58 -149 -97 -88 -105 -117 -284 -71 -436
50 -165 197 -255 396 -241 188 13 300 121 331 321 30 192 -52 372 -200 438
-59 27 -244 35 -307 15z m219 -121 c113 -47 167 -218 120 -377 -50 -166 -255
-213 -362 -83 -106 128 -71 388 60 453 50 25 132 28 182 7z"/>
</g>
</svg>
